<?xml version="1.0" encoding="UTF-8"?>
<svg id="Layer_1" xmlns="http://www.w3.org/2000/svg" version="1.1" viewBox="0 0 1597.6 456.3">
  <!-- Generator: Adobe Illustrator 29.0.1, SVG Export Plug-In . SVG Version: 2.1.0 Build 192)  -->
  <defs>
    <style>
      .st0 {
        font-family: ProximaNova-Bold, 'Proxima Nova';
        font-size: 91.4px;
        font-weight: 700;
      }
    </style>
  </defs>
  <g id="infowars">
    <path d="M0,4.8h57.9v294.7H0V4.8Z"/>
    <path d="M618.5,0c-74.3,0-136.5,53.6-150.3,123.7h-87.1V57.9h101.9V4.8h-158.2v294.1h55.7v-123.7s62.7-.5,85.5,0c11.7,73.8,75.4,130.6,151.8,130.6s152.9-68.5,152.9-152.9S703,0,618.5,0ZM618.5,250.1c-54.2,0-97.2-44.1-97.2-97.2s43.5-97.2,97.2-97.2,97.2,44.1,97.2,97.2c.5,53.1-43.5,97.2-97.2,97.2ZM307.9,299.4h-54.2l-122.6-192.7v193.3h-56.3V4.8h54.7l120,185.3V4.8h58.4"/>
    <path d="M1568.4,153.4c-12.7-11.1-19.1-13.3-55.2-23.4-43.5-12.2-56.8-24.4-56.8-51s21.8-49.4,49.4-49.4,49.9,21.2,52,52.6v1.1h33.4v-1.1c0-45.7-36.1-81.2-82.8-81.2s-68.5,18.1-80.2,49.4c-10.1-17-25.5-30.3-45.1-38.2-13.8-5.8-36.6-8.5-68-8.5h-76.5v296.3h32.4V32.9h50.4c27.1,0,43,2.7,56.8,10.6,18.6,11.1,31.3,32.9,31.3,54.7s-15.9,51-43,60.5c-13.8,5.3-23.4,6.4-67.4,6.4h-2.7l100.9,133.8.5.5h39.8l-81.8-108.8c41.9-3.2,73.3-28.7,82.8-64.8,2.1,2.7,3.7,4.8,5.8,6.9,12.2,12.2,24.4,18.1,55.7,26,44.6,11.1,64.8,29.7,64.8,60.5s-26.5,54.2-57.3,54.2-55.7-22.3-60-60v-1.1h-34v1.1c2.7,53.6,39.3,89.2,92.9,89.2s90.8-35.6,90.8-84.4c.5-24.4-10.6-48.8-29.2-64.8ZM1188.2,4.8l-168.3,294.7h37.2l43-75.4h88.7v75.4h31.9V4.8h-32.4ZM1118.2,192.7l70.1-123.2v123.2h-70.1ZM1135.7,4.8h-6.9l-137,240V4.8h-28.1l-142.8,249.5.5-249.5h-30.3v294.7h41.9l126.9-221.9v221.9h38.2L1165.9,4.8"/>
  </g>
  <text class="st0" transform="translate(.7 422.7)"><tspan x="0" y="0">A GLOBAL TETRAHEDRON COMPANY</tspan></text>
</svg>